<svg xmlns="http://www.w3.org/2000/svg" 
xmlns:xlink="http://www.w3.org/1999/xlink" 
viewBox="0 0 64 64" focusable="false">
<use xlink:href="#Navbar-icon-map-marker">

<use xlink:href="#Navbar-icon-map-marker"></use>
<g fill ="#00aeff" id="Navbar-icon-map-marker">
  <path d="M43.857,37.295c-0.488,0-0.98-0.142-1.413-0.439c-1.138-0.782-1.427-2.338-0.645-3.476     c1.354-1.972,2.071-4.288,2.071-6.695c0-6.545-5.325-11.87-11.87-11.87s-11.87,5.325-11.87,11.87     c0,2.407,0.716,4.723,2.071,6.695c0.782,1.138,0.493,2.694-0.645,3.476c-1.138,0.783-2.695,0.493-3.476-0.645     c-1.93-2.809-2.95-6.103-2.95-9.526c0-9.302,7.568-16.87,16.87-16.87s16.87,7.568,16.87,16.87c0,3.423-1.02,6.717-2.95,9.526     C45.436,36.917,44.653,37.295,43.857,37.295z"></path>
  <path d="M32,54.185c-0.814,0-1.578-0.397-2.046-1.064L18.105,36.248c-0.802-1.124-0.542-2.685,0.582-3.487     c1.124-0.802,2.685-0.542,3.487,0.582l0.35,0.49L32,47.333l9.826-13.992c0.803-1.124,2.366-1.382,3.488-0.58     c1.123,0.803,1.383,2.364,0.58,3.488l-0.35,0.49L34.046,53.121C33.578,53.788,32.815,54.185,32,54.185z"></path>
  <circle cx="32" cy="26.685" r="5.406"></circle>
</g>
</use></svg>