<svg xmlns="http://www.w3.org/2000/svg" 
xmlns:xlink="http://www.w3.org/1999/xlink" 
viewBox="0 0 64 64" focusable="false">
<use xlink:href="#Navbar-icon-check">
<use xlink:href="#Navbar-icon-check"></use>
<g fill ="#00aeff" id="Navbar-icon-check">
    <path d="M12.853,31.912c0,0-1.184,0.839,0,2.764s7.551,13.029,8.291,15.003  
    c0.74,1.974,1.579,3.208,4.096,2.616s5.133-1.431,6.218-3.553c1.086-2.122,6.515-15.003,11.154-22.307s7.403-11.549,8.242-12.437   
    s2.122-2.665-2.566-2.418S34.963,22.387,28.35,36.157c0,0-0.556,1.765-1.629-0.049c-1.463-2.475-2.627-4.392-3.491-5.725
    c-0.546-0.842-1.567-2.221-3.319-1.925C18.578,28.705,14.531,30.086,12.853,31.912z"></path>
</g>
</use></svg>